<svg width="225" height="23" viewBox="0 0 225 23" fill="none" xmlns="http://www.w3.org/2000/svg">
<g id="Ebene 1">
<g id="Group">
<path id="Vector" d="M0.580566 2.72343H8.16833V21.7224H11.1705V2.72343H18.7582V0.320312H0.580566V2.72343Z" fill="white"/>
<path id="Vector_2" d="M38.1363 9.57498H24.9282V0.320312H21.926V21.7224H24.9282V11.9781H38.1363V21.7224H41.1376V0.320312H38.1363V9.57498Z" fill="white"/>
<path id="Vector_3" d="M45.8071 21.7224H60.7166V19.3201H48.8093V11.9634H60.0989V9.58971H48.8093V2.72343H60.7166V0.320312H45.8071V21.7224Z" fill="white"/>
<path id="Vector_4" d="M71.6729 21.7224H74.6741V12.453H85.3303V10.0793H74.6741V2.72343H86.2813V0.320312H71.6729V21.7224Z" fill="white"/>
<path id="Vector_5" d="M105.81 14.0398C105.81 15.1369 105.554 16.1039 105.043 16.9391C104.531 17.775 103.789 18.4301 102.817 18.9041C101.843 19.379 100.662 19.6157 99.2731 19.6157C97.8839 19.6157 96.6991 19.3782 95.7214 18.9041C94.7427 18.4293 93.9952 17.775 93.4787 16.9391C92.9613 16.1039 92.7036 15.1369 92.7036 14.0398V0.320312H89.7014V14.2175C89.7014 15.7699 90.0853 17.1372 90.8522 18.3187C91.6191 19.5002 92.7174 20.4222 94.1462 21.0846C95.575 21.7469 97.2837 22.0786 99.274 22.0786C101.264 22.0786 102.97 21.7469 104.394 21.0846C105.817 20.4222 106.909 19.5002 107.67 18.3187C108.431 17.1372 108.813 15.7699 108.813 14.2175V0.320312H105.81V14.0398H105.81Z" fill="white"/>
<path id="Vector_6" d="M111.979 2.72343H119.567V21.7224H122.569V2.72343H130.157V0.320312H111.979V2.72343Z" fill="white"/>
<path id="Vector_7" d="M149.435 14.0398C149.435 15.1369 149.179 16.1039 148.668 16.9391C148.156 17.775 147.414 18.4301 146.442 18.9041C145.469 19.379 144.288 19.6157 142.899 19.6157C141.509 19.6157 140.325 19.3782 139.347 18.9041C138.368 18.4293 137.621 17.775 137.104 16.9391C136.587 16.1039 136.329 15.1369 136.329 14.0398V0.320312H133.327V14.2175C133.327 15.7699 133.711 17.1372 134.478 18.3187C135.245 19.5002 136.343 20.4222 137.772 21.0846C139.2 21.7469 140.909 22.0786 142.9 22.0786C144.89 22.0786 146.596 21.7469 148.019 21.0846C149.442 20.4222 150.534 19.5002 151.296 18.3187C152.057 17.1372 152.438 15.7699 152.438 14.2175V0.320312H149.436V14.0398H149.435Z" fill="white"/>
<path id="Vector_8" d="M172.507 10.5763C173.368 9.49392 173.799 8.21089 173.799 6.72726V6.69779C173.799 5.4123 173.483 4.29303 172.848 3.33833C172.215 2.38446 171.323 1.64264 170.172 1.11371C169.021 0.584778 167.674 0.320312 166.128 0.320312H157.106V21.7224H160.108V13.2538H165.861L171.014 21.7224H174.532L168.962 12.8378C170.463 12.4129 171.644 11.6588 172.506 10.5763H172.507ZM160.108 10.8948V2.69314H165.728C167.273 2.69314 168.488 3.05176 169.372 3.76819C170.256 4.48544 170.698 5.48108 170.698 6.75674V6.78621C170.698 8.10117 170.278 9.11482 169.438 9.82634C168.599 10.5379 167.407 10.894 165.861 10.894H160.108V10.8948Z" fill="white"/>
<path id="Vector_9" d="M177.568 21.7224H192.477V19.3201H180.571V11.9634H191.86V9.58971H180.571V2.72343H192.477V0.320312H177.568V21.7224Z" fill="white"/>
<path id="Vector_10" d="M222.218 1.54865L215.913 10.276C215.77 10.4742 215.694 10.7042 215.694 10.9401V11.0203C215.694 11.252 215.768 11.4796 215.907 11.6753L222.16 20.4944H218.576L214.308 14.1505C214.059 13.7796 213.609 13.5528 213.124 13.5528H212.955C212.468 13.5528 212.016 13.7812 211.768 14.1538L207.535 20.4936H204.254L210.335 11.5869C210.467 11.3945 210.536 11.1742 210.536 10.9491V10.8795C210.536 10.651 210.464 10.4275 210.33 10.2334L204.294 1.54702H208.149L212.16 8.14147C212.401 8.53776 212.868 8.78503 213.374 8.78503H213.555C214.064 8.78503 214.531 8.53612 214.772 8.13819L218.752 1.54702H222.218M224.747 0.318848H217.927L213.555 7.55686H213.374L208.97 0.320485H201.816L209.153 10.8803V10.9499L201.799 21.7226H208.32L212.954 14.7809H213.123L217.792 21.7226H224.663L217.075 11.0195V10.9392L224.746 0.320485L224.747 0.318848Z" fill="white"/>
</g>
</g>
</svg>
