<svg width="85" height="28" viewBox="0 0 85 28" fill="none" xmlns="http://www.w3.org/2000/svg">
<g id="vertical+symbol" clip-path="url(#clip0_80_419)">
<g id="Ebene 1">
<path id="Vector" d="M13.8154 19.8993C19.4839 13.8213 25.1525 7.74386 30.8211 1.66644C24.0077 4.20808 17.1944 6.74908 10.3811 9.29072L16.9676 3.42765L14.5453 0L10.0583 9.41157L0 13.163L8.06229 16.244L18.4605 9.58457C13.5117 15.723 8.56607 21.8615 3.61726 28L17.8246 19.9521L29.7081 23.9172C27.5875 20.6295 25.4651 17.3437 23.3445 14.056C20.1681 16.0035 16.9917 17.9511 13.8154 19.8987V19.8993Z" fill="#025EFF"/>
<g id="Group">
<path id="Vector_2" d="M36.494 9.75574H39.2886L39.8242 11.6365H42.1188L39.2296 3.04736H36.5544L33.6652 11.6365H35.9598L36.494 9.75574ZM37.9101 4.9167L38.8395 8.17834H36.9426L37.8688 4.9167H37.9107H37.9101Z" fill="#025EFF"/>
<path id="Vector_3" d="M49.5623 9.8804H45.3708V9.83906L49.4314 4.43394V3.04736H42.8563V4.80348H46.8687V4.84483L42.7909 10.2436V11.6365H49.5623V9.8804Z" fill="#025EFF"/>
<path id="Vector_4" d="M51.0724 11.0024C51.3455 11.2581 51.6746 11.454 52.059 11.5888C52.4433 11.7237 52.8772 11.7911 53.3606 11.7911C54.0264 11.7911 54.5943 11.6721 55.0638 11.4343C55.5333 11.1964 55.8922 10.8529 56.14 10.4045C56.3877 9.95609 56.5116 9.41418 56.5116 8.77941V3.04736H54.3301V8.7616C54.3301 9.1464 54.2449 9.43899 54.0747 9.63934C53.9044 9.83969 53.6567 9.93955 53.3314 9.93955C53.1211 9.93955 52.9407 9.89503 52.7902 9.80598C52.6396 9.71694 52.5233 9.58846 52.4427 9.42181C52.3613 9.25517 52.3188 9.06054 52.315 8.83856L52.3093 8.81502H50.2109V8.85064C50.2186 9.30287 50.2961 9.71058 50.4428 10.0738C50.5896 10.4369 50.7992 10.7467 51.073 11.0024H51.0724Z" fill="#025EFF"/>
<path id="Vector_5" d="M34.141 22.4722H40.0205V20.7161H36.3225V18.9778H39.8007V17.3355H36.3225V15.6392H40.0205V13.8831H34.141V22.4722Z" fill="#025EFF"/>
<path id="Vector_6" d="M41.251 22.4722H43.4325V19.2697H46.7563V17.5969H43.4325V15.6392H47.0892V13.8831H41.251V22.4722Z" fill="#025EFF"/>
<path id="Vector_7" d="M48.058 22.4722H50.2395V19.2697H53.5633V17.5969H50.2395V15.6392H53.8962V13.8831H48.058V22.4722Z" fill="#025EFF"/>
<path id="Vector_8" d="M54.865 22.4722H60.7445V20.7161H57.0465V18.9778H60.5247V17.3355H57.0465V15.6392H60.7445V13.8831H54.865V22.4722Z" fill="#025EFF"/>
<path id="Vector_9" d="M67.6824 19.2639C67.6309 19.5851 67.5261 19.8618 67.3673 20.094C67.2084 20.3261 67.0064 20.5048 66.7606 20.6295C66.5147 20.7542 66.2333 20.8171 65.9163 20.8171C65.5199 20.8171 65.1749 20.7122 64.8821 20.5017C64.5886 20.2911 64.3631 19.9877 64.2042 19.5909C64.0454 19.194 63.9666 18.7201 63.9666 18.168V18.1623C63.9666 17.6147 64.046 17.1453 64.2042 16.7547C64.3624 16.3642 64.5879 16.0633 64.8789 15.8528C65.1705 15.6423 65.5142 15.5373 65.9106 15.5373C66.2473 15.5373 66.5389 15.6028 66.7847 15.7339C67.0306 15.8649 67.2275 16.0443 67.3762 16.2726C67.5248 16.5009 67.6227 16.7655 67.6703 17.067L67.6824 17.1503H69.787L69.7813 17.0969C69.7578 16.4539 69.5799 15.8789 69.249 15.3707C68.918 14.8631 68.4663 14.4618 67.8933 14.1686C67.3203 13.8747 66.6596 13.7278 65.9106 13.7278C65.0587 13.7278 64.3205 13.9033 63.696 14.2544C63.0715 14.6055 62.5894 15.1125 62.2482 15.7752C61.9071 16.438 61.7368 17.2356 61.7368 18.168V18.1737C61.7368 19.1062 61.9064 19.9051 62.245 20.5697C62.5836 21.2344 63.0652 21.7432 63.6897 22.0962C64.3141 22.4492 65.0542 22.6261 65.9099 22.6261C66.6551 22.6261 67.3139 22.4791 67.8869 22.1859C68.4593 21.8921 68.9135 21.4926 69.2483 20.9863C69.5831 20.48 69.7642 19.9082 69.7921 19.269V19.2035H67.6938L67.6817 19.2633L67.6824 19.2639Z" fill="#025EFF"/>
<path id="Vector_10" d="M70.2507 15.6392H72.6165V22.4722H74.7987V15.6392H77.1587V13.8831H70.2507V15.6392Z" fill="#025EFF"/>
<path id="Vector_11" d="M84.7147 18.642C84.5247 18.3189 84.2331 18.0517 83.8405 17.8412C83.4479 17.6307 82.9467 17.4685 82.3362 17.3533L81.4563 17.1867C80.9964 17.0996 80.6616 16.9882 80.4513 16.8534C80.241 16.7186 80.1362 16.536 80.1362 16.3058V16.3C80.1362 16.1372 80.1845 15.9916 80.2817 15.8624C80.3789 15.7333 80.5206 15.6316 80.7067 15.5559C80.8928 15.4808 81.119 15.4427 81.3845 15.4427C81.6501 15.4427 81.8782 15.4802 82.0802 15.5559C82.2822 15.6316 82.4448 15.7365 82.5674 15.8714C82.69 16.0062 82.7637 16.169 82.7872 16.3598L82.793 16.4253H84.8201L84.8144 16.3C84.7909 15.7804 84.641 15.3282 84.3653 14.9427C84.0896 14.5579 83.7001 14.2596 83.197 14.0472C82.6939 13.8347 82.0834 13.7285 81.3661 13.7285C80.7124 13.7285 80.1286 13.8405 79.6153 14.065C79.102 14.2895 78.6986 14.605 78.4057 15.0114C78.1122 15.4185 77.9661 15.8974 77.9661 16.4489V16.4546C77.9661 17.1136 78.1872 17.6497 78.6287 18.0644C79.0709 18.4791 79.7157 18.766 80.5638 18.9244L81.4436 19.0967C81.9468 19.1921 82.3038 19.306 82.5134 19.4389C82.7237 19.5719 82.8285 19.7595 82.8285 20.0012V20.0069C82.8285 20.1857 82.7707 20.3421 82.6564 20.477C82.5414 20.6118 82.38 20.718 82.1717 20.7956C81.9639 20.8732 81.7149 20.9114 81.4258 20.9114C81.1368 20.9114 80.8967 20.8726 80.6711 20.7956C80.445 20.718 80.2601 20.6112 80.1153 20.4744C79.9704 20.3377 79.8783 20.1761 79.8389 19.9891L79.8268 19.93H77.7997L77.8054 20.0368C77.841 20.5845 78.0068 21.0507 78.3016 21.4355C78.597 21.8203 79.0067 22.1148 79.5321 22.3196C80.0575 22.5238 80.6762 22.6262 81.3896 22.6262C82.1469 22.6262 82.7949 22.5123 83.3336 22.284C83.8723 22.0556 84.2846 21.7312 84.5698 21.3108C84.8551 20.8904 84.998 20.3943 84.998 19.8225V19.8167C84.998 19.3562 84.9027 18.9644 84.7128 18.6413L84.7147 18.642Z" fill="#025EFF"/>
</g>
</g>
</g>
<defs>
<clipPath id="clip0_80_419">
<rect width="85" height="28" fill="white"/>
</clipPath>
</defs>
</svg>
