<svg width="125" height="42" viewBox="0 0 125 42" fill="none" xmlns="http://www.w3.org/2000/svg">
<g id="header-logo 1" clip-path="url(#clip0_337_3394)">
<g id="Ebene 1">
<g id="Group">
<path id="Vector" d="M16.0003 0.5C10.6684 12.669 5.3342 24.8354 0 37.0044L3.98038 41.5C6.65649 39.9862 12.0425 37.442 19.1855 37.442C26.3286 37.442 31.7124 39.9887 34.3907 41.5025L38.3711 37.0069C33.0346 24.8354 27.7027 12.669 22.3685 0.5H16.0026H16.0003ZM19.1833 29.705C16.1896 29.705 13.2364 30.0638 10.3733 30.7711L19.1833 10.6743L27.9933 30.7711C25.1302 30.0638 22.1793 29.705 19.1833 29.705Z" fill="#025EFF"/>
<path id="Vector_2" d="M67.5582 5.21692H61.127L51.88 36.2258H59.2235L60.9333 29.4353H69.8762L71.5904 36.2258H78.9339L69.6869 5.21692H67.556H67.5582ZM62.3682 23.7413L65.3326 11.9642H65.4655L68.439 23.7413H62.3682Z" fill="#025EFF"/>
<path id="Vector_3" d="M89.3434 29.7355L102.339 10.2239V5.21692H81.297V11.5546H94.1392V11.7047L81.0875 31.1959V36.2258H102.758V29.8856H89.3434V29.7355Z" fill="#025EFF"/>
<path id="Vector_4" d="M118.017 5.21692V25.8479C118.017 27.2371 117.744 28.2955 117.199 29.018C116.654 29.7406 115.861 30.1044 114.82 30.1044C114.147 30.1044 113.57 29.9441 113.088 29.621C112.606 29.2979 112.234 28.8374 111.975 28.2344C111.716 27.6314 111.579 26.9318 111.565 26.1278L111.547 26.0413V22.0418H104.83V26.1711C104.855 27.8044 105.103 29.2775 105.571 30.5878C106.04 31.8981 106.713 33.015 107.587 33.9411C108.461 34.8646 109.516 35.5719 110.745 36.0579C111.975 36.5438 113.365 36.7881 114.913 36.7881C117.044 36.7881 118.862 36.3581 120.364 35.4981C121.867 34.6382 123.015 33.3992 123.808 31.7811C124.601 30.1629 124.998 28.2064 124.998 25.9141V5.21692H118.015H118.017Z" fill="#025EFF"/>
</g>
</g>
</g>
<defs>
<clipPath id="clip0_337_3394">
<rect width="125" height="41" fill="white" transform="translate(0 0.5)"/>
</clipPath>
</defs>
</svg>
