<svg width="12" height="14" viewBox="0 0 12 14" fill="none" xmlns="http://www.w3.org/2000/svg">
<g id="&#240;&#159;&#166;&#134; icon &#34;tiktok&#34;">
<path id="Vector" d="M2.22548 8.8963C2.30362 8.24935 2.56895 7.88715 3.06895 7.51585C3.7844 7.01295 4.67805 7.2974 4.67805 7.2974V5.60985C4.89535 5.60425 5.1127 5.61715 5.32755 5.6483V7.82005C5.32755 7.82005 4.43415 7.5356 3.71875 8.03875C3.219 8.4098 2.95312 8.7723 2.87525 9.41924C2.87281 9.77055 2.93874 10.2297 3.24235 10.6268C3.16725 10.5883 3.09075 10.5444 3.0128 10.4952C2.34404 10.0461 2.22222 9.37245 2.22548 8.8963ZM9.0176 2.48949C8.52545 1.95019 8.3393 1.40569 8.27205 1.02319H8.89115C8.89115 1.02319 8.7677 2.02612 9.66735 3.01241L9.67985 3.02567C9.43735 2.87315 9.215 2.69312 9.0176 2.48949ZM12 4.01845V6.1465C12 6.1465 11.21 6.1156 10.6253 5.96685C9.80895 5.7588 9.28425 5.43975 9.28425 5.43975C9.28425 5.43975 8.9218 5.21225 8.8925 5.1964V9.59085C8.8925 9.83555 8.8255 10.4466 8.6212 10.9562C8.3545 11.623 7.94295 12.0606 7.86725 12.15C7.86725 12.15 7.3667 12.7416 6.4836 13.14C5.6876 13.4993 4.9887 13.4902 4.7798 13.4993C4.7798 13.4993 3.5717 13.5472 2.48458 12.8407C2.24949 12.6849 2.03006 12.5086 1.8291 12.3138L1.83453 12.3177C2.92192 13.0242 4.12975 12.9764 4.12975 12.9764C4.33895 12.9673 5.0378 12.9764 5.83355 12.617C6.71585 12.2187 7.2172 11.6271 7.2172 11.6271C7.2921 11.5377 7.70555 11.1 7.97115 10.4331C8.1749 9.9237 8.24245 9.31235 8.24245 9.0677V4.67375C8.27175 4.68985 8.63395 4.91735 8.63395 4.91735C8.63395 4.91735 9.15895 5.2367 9.9753 5.44445C10.5602 5.5932 11.35 5.62415 11.35 5.62415V3.95657C11.6202 4.01715 11.8505 4.03355 12 4.01845Z" fill="#EE1D52"/>
<path id="Vector_2" d="M11.3504 3.95657V5.6236C11.3504 5.6236 10.5606 5.59265 9.97575 5.44395C9.1594 5.2359 8.6344 4.91685 8.6344 4.91685C8.6344 4.91685 8.2722 4.68935 8.2429 4.6732V9.0682C8.2429 9.3129 8.1759 9.9242 7.9716 10.4336C7.7049 11.1006 7.29335 11.5382 7.21765 11.6276C7.21765 11.6276 6.71685 12.2192 5.834 12.6176C5.03825 12.9769 4.3394 12.9678 4.1302 12.9769C4.1302 12.9769 2.92236 13.0248 1.83497 12.3183L1.82955 12.3144C1.71474 12.2032 1.60668 12.0858 1.50588 11.9628C1.15888 11.5397 0.946184 11.0394 0.892734 10.8967C0.892644 10.8961 0.892644 10.8955 0.892734 10.8949C0.806734 10.6468 0.626043 10.0511 0.650733 9.4741C0.694413 8.4561 1.05253 7.83125 1.14722 7.6747C1.39798 7.24785 1.72414 6.8659 2.11116 6.54595C2.45269 6.2698 2.8398 6.0501 3.2566 5.89585C3.7072 5.71475 4.1897 5.61765 4.67825 5.60985V7.2974C4.67825 7.2974 3.78455 7.014 3.0694 7.51585C2.56939 7.88715 2.30406 8.24935 2.22592 8.8963C2.22267 9.37245 2.34448 10.0461 3.0127 10.4955C3.09065 10.5449 3.16715 10.5887 3.24225 10.627C3.35895 10.7788 3.50105 10.911 3.66275 11.0184C4.3155 11.4316 4.86245 11.4604 5.5619 11.1921C6.02825 11.0127 6.3793 10.6083 6.5421 10.1603C6.6444 9.88055 6.64305 9.5989 6.64305 9.3077V1.02319H8.27085C8.33815 1.40569 8.52425 1.95019 9.0164 2.48949C9.2138 2.69312 9.4362 2.87315 9.67865 3.02567C9.7503 3.09977 10.1165 3.46615 10.5867 3.69108C10.8298 3.80734 11.0861 3.89642 11.3504 3.95657Z" fill="black"/>
<g id="Group">
<path id="Vector_3" d="M0.244629 10.3784V10.3797L0.285019 10.4892C0.280379 10.4764 0.265369 10.4377 0.244629 10.3784Z" fill="#69C9D0"/>
<path id="Vector_4" d="M3.2564 5.89577C2.8396 6.05007 2.45249 6.26977 2.11096 6.54587C1.72382 6.86657 1.39774 7.24932 1.14729 7.67697C1.05261 7.83302 0.694486 8.45837 0.650806 9.47637C0.626116 10.0534 0.806806 10.6491 0.892806 10.8972C0.892716 10.8978 0.892716 10.8984 0.892806 10.899C0.947066 11.0405 1.15896 11.5407 1.50596 11.9651C1.60675 12.0881 1.71482 12.2055 1.82962 12.3167C1.46179 12.0728 1.13373 11.7781 0.856181 11.4419C0.512166 11.0225 0.300006 10.5274 0.244661 10.3813C0.244596 10.3802 0.244596 10.3792 0.244661 10.3782V10.3763C0.158386 10.1285 -0.0228438 9.53252 0.0023862 8.95477C0.0460662 7.93677 0.404191 7.31192 0.498876 7.15537C0.749251 6.72762 1.07534 6.34487 1.46255 6.02427C1.804 5.74802 2.19113 5.52832 2.60799 5.37417C2.86801 5.27077 3.1389 5.19452 3.41595 5.14667C3.83345 5.07682 4.2599 5.07072 4.6794 5.12872V5.60977C4.1904 5.61742 3.7074 5.71452 3.2564 5.89577Z" fill="#69C9D0"/>
<path id="Vector_5" d="M8.27189 1.02317H6.64404V9.30795C6.64404 9.59915 6.64404 9.88 6.54314 10.1605C6.37874 10.6083 6.02899 11.0126 5.56289 11.1921C4.86324 11.4615 4.31629 11.4316 3.66379 11.0184C3.50179 10.9115 3.35934 10.7797 3.24219 10.6283C3.79809 10.9125 4.29564 10.9076 4.91204 10.6705C5.37789 10.491 5.72814 10.0867 5.89199 9.6387C5.99454 9.3589 5.99319 9.0773 5.99319 8.7863V0.5H8.24094C8.24094 0.5 8.21574 0.70594 8.27189 1.02317ZM11.3501 3.49552V3.95655C11.0862 3.89631 10.8304 3.80723 10.5877 3.69106C10.1176 3.46614 9.75129 3.09976 9.67969 3.02565C9.76278 3.07795 9.84904 3.12553 9.93794 3.16814C10.5096 3.44169 11.0725 3.52334 11.3501 3.49552Z" fill="#69C9D0"/>
</g>
</g>
</svg>
