<svg width="30" height="28" viewBox="0 0 30 28" fill="none" xmlns="http://www.w3.org/2000/svg">
<g id="&#240;&#159;&#166;&#134; icon &#34;snapchat&#34;">
<path id="Vector" d="M15.0517 0.00123319C16.2726 0.00123319 20.4124 0.341597 22.3646 4.7133C23.017 6.18452 22.8616 8.68299 22.7333 10.6906L22.7296 10.7646C22.7148 10.9866 22.7025 11.1901 22.6926 11.3936C22.7851 11.4491 22.943 11.5046 23.1871 11.5046C23.5571 11.4848 23.9998 11.3566 24.461 11.1334C24.6386 11.045 24.8349 11.001 25.0332 11.0051C25.2577 11.0051 25.476 11.0409 25.6609 11.1161C26.2159 11.2998 26.5661 11.7068 26.5661 12.1495C26.5846 12.7032 26.0852 13.1842 25.0702 13.5899C24.9605 13.6257 24.8125 13.6824 24.646 13.7367C24.0911 13.9031 23.2414 14.1806 23.0022 14.7356C22.8912 15.0118 22.9269 15.3817 23.1501 15.806L23.1686 15.8245C23.2426 15.9922 25.0505 20.1099 29.0769 20.7745C29.3914 20.8288 29.6134 21.1075 29.5949 21.4022C29.5942 21.4974 29.5754 21.5916 29.5394 21.6797C29.2434 22.3814 27.9695 22.8981 25.6597 23.2471C25.587 23.3593 25.5117 23.7096 25.4575 23.95C25.4217 24.1708 25.3662 24.394 25.2922 24.632C25.1985 24.9662 24.9593 25.1315 24.6078 25.1315H24.5708C24.3474 25.12 24.1255 25.0894 23.9073 25.0402C23.3914 24.9292 22.8652 24.8734 22.3375 24.8737C21.9675 24.8737 21.5988 24.8922 21.2115 24.965C20.4716 25.0932 19.8267 25.5372 19.0867 26.0551C18.0348 26.7938 16.8349 27.6435 15.0246 27.6435C14.9506 27.6435 14.8778 27.625 14.8026 27.625H14.6188C12.8085 27.625 11.6259 26.7926 10.5752 26.0366C9.83647 25.5187 9.21001 25.076 8.47008 24.9465C8.09122 24.8893 7.70881 24.8588 7.32567 24.8552C6.65974 24.8552 6.14426 24.965 5.75704 25.039C5.53844 25.0904 5.31547 25.1209 5.09111 25.1302C4.62989 25.1302 4.44614 24.854 4.37215 24.6123C4.29692 24.3755 4.26116 24.1326 4.20566 23.9131C4.14894 23.6898 4.07618 23.3039 4.00095 23.2101C1.63567 22.9364 0.363002 22.4184 0.0682662 21.6982C0.0278501 21.611 0.00481213 21.5168 0.000439973 21.4207C-0.00524807 21.2708 0.0443781 21.124 0.139878 21.0083C0.235379 20.8925 0.37009 20.8159 0.518386 20.793C4.54356 20.1271 6.35144 16.0095 6.42666 15.8356L6.4464 15.7998C6.66837 15.3744 6.72263 15.0044 6.59315 14.7282C6.35267 14.1929 5.503 13.9167 4.95052 13.7305C4.80452 13.6933 4.66181 13.6442 4.52383 13.5837C3.15867 13.0473 2.97369 12.4369 3.04769 12.0139C3.15867 11.4232 3.87887 11.0359 4.48807 11.0359C4.66812 11.0359 4.82103 11.0717 4.96039 11.1272C5.47833 11.3664 5.93338 11.4972 6.32184 11.4972C6.61041 11.4972 6.79539 11.4232 6.89528 11.3677L6.83855 10.666C6.7177 8.66079 6.56108 6.16355 7.21715 4.70097C9.11505 0.351463 13.2426 0.018498 14.461 0.018498L14.9777 0L15.0517 0.00123319Z" fill="white"/>
</g>
</svg>
