<svg width="24" height="28" viewBox="0 0 24 28" fill="none" xmlns="http://www.w3.org/2000/svg">
<g id="&#240;&#159;&#166;&#134; icon &#34;TikTok&#34;">
<path id="Vector" d="M24 11.2484C21.6408 11.2541 19.3395 10.5183 17.4211 9.14515V18.7222C17.4205 20.496 16.8783 22.2273 15.8671 23.6846C14.856 25.142 13.424 26.2558 11.7627 26.8774C10.1013 27.4989 8.28986 27.5984 6.57045 27.1626C4.85104 26.7268 3.30566 25.7764 2.14095 24.4386C0.976234 23.1008 0.247702 21.4393 0.0527683 19.6763C-0.142166 17.9133 0.20579 16.1327 1.05011 14.5728C1.89443 13.0128 3.19486 11.7479 4.77753 10.9469C6.36019 10.146 8.14965 9.8474 9.90663 10.091V14.9079C9.10263 14.655 8.23929 14.6626 7.43988 14.9297C6.64047 15.1967 5.94589 15.7095 5.45531 16.3949C4.96474 17.0802 4.70326 17.903 4.70823 18.7459C4.71319 19.5887 4.98434 20.4084 5.48295 21.0879C5.98157 21.7674 6.68215 22.272 7.48464 22.5296C8.28714 22.7872 9.15052 22.7847 9.95148 22.5223C10.7524 22.26 11.45 21.7512 11.9446 21.0688C12.4392 20.3863 12.7055 19.565 12.7055 18.7222V0H17.4211C17.4179 0.398226 17.4512 0.795909 17.5208 1.18802C17.6847 2.06336 18.0254 2.89606 18.5221 3.6352C19.0188 4.37434 19.6611 5.00437 20.4097 5.48677C21.4747 6.19095 22.7233 6.56628 24 6.56601V11.2484Z" fill="#0E101C"/>
</g>
</svg>
