<svg width="38" height="27" viewBox="0 0 38 27" fill="none" xmlns="http://www.w3.org/2000/svg">
<g id="&#240;&#159;&#166;&#134; icon &#34;youtube&#34;">
<path id="Vector" d="M37.2067 4.09579C36.7553 2.49336 35.5057 1.2366 33.8961 0.792343C30.9324 3.78792e-05 19.0181 3.80707e-05 19.0181 3.80707e-05C19.0181 3.80707e-05 7.12644 -0.018968 4.13183 0.792343C2.53059 1.23779 1.27502 2.49336 0.82838 4.09579C0.26652 7.13316 -0.0126282 10.2074 0.000438312 13.2958C-0.00550101 16.3641 0.272459 19.4335 0.82838 22.4519C1.27502 24.0543 2.53059 25.311 4.13183 25.7624C7.09555 26.5547 19.0181 26.5547 19.0181 26.5547C19.0181 26.5547 30.9027 26.5547 33.8961 25.7624C35.5057 25.311 36.7553 24.0555 37.2067 22.4519C37.752 19.4335 38.018 16.3641 37.999 13.2958C38.018 10.2074 37.7579 7.13316 37.2067 4.09579ZM15.2122 18.9821V7.58455L25.1297 13.2958L15.2122 18.9821Z" fill="#0E101C"/>
</g>
</svg>
